<svg width="464" height="329" viewBox="0 0 464 329" fill="none" xmlns="http://www.w3.org/2000/svg">
<path d="M432.285 266.234C432.285 270.207 429.031 273.457 425.055 273.457H34.1113C30.1352 273.457 26.8817 270.207 26.8817 266.234L23.6287 41.5695C23.6287 37.5972 28.3089 29.842 36.8861 30.4248L418.96 20.5386C423.949 20.4095 428.772 22.3296 432.305 25.8512C435.838 29.3727 437.771 34.1872 437.653 39.1716L432.285 266.234Z" fill="url(#paint0_linear_185_6763)"/>
<path d="M425.148 259.305C425.148 263.067 422.07 266.145 418.308 266.145H43.5394C39.7777 266.145 36.6997 263.067 36.6997 259.305L33.63 55.3523C33.9916 43.079 44.7519 38.6678 51.2747 38.9282C51.2747 38.9282 349.9 30.9165 417.457 29.1041C420.962 29.0101 424.351 30.3606 426.834 32.8366C429.316 35.3127 430.681 38.7014 430.593 42.2067L425.148 259.305Z" fill="url(#paint1_linear_185_6763)"/>
<path d="M40.7494 161.927C40.4678 161.927 40.2375 161.7 40.2332 161.418L39.9903 144.877C39.9863 144.593 40.214 144.358 40.4992 144.353C40.5017 144.353 40.5043 144.353 40.5069 144.353C40.7885 144.353 41.0188 144.58 41.0231 144.862L41.266 161.403C41.27 161.688 41.0423 161.923 40.7571 161.927C40.7546 161.927 40.7522 161.927 40.7494 161.927Z" fill="white"/>
<path d="M40.1548 121.395C39.8732 121.395 39.6429 121.168 39.6386 120.886L38.7084 57.537C38.7275 53.317 40.0274 49.9457 42.5716 47.5077C47.2029 43.0697 54.4488 43.2957 54.7579 43.3052L171.699 40.167C171.995 40.1756 172.222 40.3844 172.229 40.6698C172.237 40.9547 172.012 41.1919 171.727 41.2L54.7562 44.3382C54.4292 44.323 47.6044 44.1163 43.2864 48.2536C40.9519 50.4903 39.7593 53.6119 39.7415 57.5319L40.6718 120.871C40.6757 121.156 40.4481 121.391 40.1628 121.395C40.16 121.395 40.1576 121.395 40.1548 121.395Z" fill="white"/>
<path opacity="0.37" d="M53.2104 247.991C53.6028 231.134 53.4568 81.8613 52.4895 68.9695C51.5222 56.0776 71.6004 53.6597 102.426 52.2088C133.253 50.758 393.344 45.014 400.041 44.471C415.094 43.2504 418.21 65.7499 416.704 114.595C415.572 151.291 413.697 211.743 412.834 239.543C412.577 247.82 405.812 254.388 397.53 254.411C334.941 254.583 95.0574 255.27 79.088 255.746C60.7109 256.293 53.0549 254.675 53.2104 247.991Z" fill="white"/>
<path d="M462.311 292.107H4.78187C3.85276 292.107 3.09253 291.346 3.09253 290.417V274.056C3.09253 273.127 3.85276 272.367 4.78187 272.367H462.311C463.24 272.367 464 273.127 464 274.056V290.417C464 291.346 463.24 292.107 462.311 292.107Z" fill="url(#paint2_linear_185_6763)"/>
<path d="M218.551 323.122H44.4334C42.8769 323.122 41.615 324.384 41.615 325.94C41.615 327.497 42.8769 328.759 44.4334 328.759H218.551C220.108 328.759 221.37 327.497 221.37 325.94C221.37 324.383 220.108 323.122 218.551 323.122Z" fill="url(#paint3_linear_185_6763)"/>
<path d="M193.889 294.466H69.0957C65.3335 294.466 62.2837 297.516 62.2837 301.278V323.122H200.701V301.278C200.701 297.516 197.651 294.466 193.889 294.466Z" fill="url(#paint4_linear_185_6763)"/>
<path d="M184.656 282.294H78.3282C74.5661 282.294 71.5162 285.344 71.5162 289.106V294.466H191.468V289.106C191.468 285.344 188.418 282.294 184.656 282.294Z" fill="url(#paint5_linear_185_6763)"/>
<path d="M163.522 282.294H99.4629V247.152C99.4629 246.731 99.8039 246.39 100.225 246.39H162.76C163.18 246.39 163.522 246.731 163.522 247.152L163.522 282.294Z" fill="url(#paint6_linear_185_6763)"/>
<path d="M90.9739 300.417H79.7888V323.122H90.9739V300.417Z" fill="url(#paint7_linear_185_6763)"/>
<path d="M99.4628 300.417H94.9685V323.122H99.4628V300.417Z" fill="url(#paint8_linear_185_6763)"/>
<path d="M105.797 300.417H101.303V323.122H105.797V300.417Z" fill="#2B3582"/>
<path d="M112.131 300.417H107.637V323.122H112.131V300.417Z" fill="#F9F9F9"/>
<path d="M27.0314 143.672C25.4706 145.11 25.3348 147.527 26.7251 149.13L114.383 251.491C115.832 253.162 118.377 253.305 120.005 251.806L127.462 244.94L30.9227 140.09L27.0314 143.672Z" fill="url(#paint9_linear_185_6763)"/>
<path d="M39.0345 110.786C36.0503 107.675 31.1265 107.523 27.9555 110.442L20.0938 117.681C16.9228 120.601 16.6692 125.52 19.5232 128.75L124.115 248.021L146.039 227.834C147.817 226.197 147.898 223.417 146.219 221.679L39.0345 110.786Z" fill="url(#paint10_linear_185_6763)"/>
<path d="M46.5362 135.777L45.7139 136.534C43.1679 138.878 43.0043 142.842 45.3485 145.388L100.543 205.334C102.887 207.88 106.851 208.043 109.397 205.699L110.22 204.942C112.766 202.598 112.93 198.633 110.585 196.087L55.3911 136.142C53.0467 133.596 49.0822 133.432 46.5362 135.777Z" fill="url(#paint11_linear_185_6763)"/>
<path opacity="0.39" d="M47.2743 135.107L44.9567 137.24L108.635 206.41L110.953 204.276L47.2743 135.107Z" fill="white"/>
<path d="M132.218 266.61C147.651 266.61 160.161 254.1 160.161 238.668C160.161 223.236 147.651 210.725 132.218 210.725C116.786 210.725 104.276 223.236 104.276 238.668C104.276 254.1 116.786 266.61 132.218 266.61Z" fill="url(#paint12_linear_185_6763)"/>
<path opacity="0.39" d="M132.219 260.012C144.007 260.012 153.563 250.456 153.563 238.668C153.563 226.88 144.007 217.323 132.219 217.323C120.43 217.323 110.874 226.88 110.874 238.668C110.874 250.456 120.43 260.012 132.219 260.012Z" fill="white"/>
<path d="M25.8308 117.443L31.345 123.432C32.5485 124.739 34.5943 124.793 35.8651 123.551L112.79 47.4311C114.009 46.2403 114.06 44.2965 112.906 43.0432L110.029 39.9185L25.8308 117.443Z" fill="url(#paint13_linear_185_6763)"/>
<path d="M114.364 16.3881L120.176 22.7014C122.521 25.2478 122.399 29.2017 119.901 31.5981L28.3046 120.13L12.094 102.524C10.7794 101.097 10.8984 98.8663 12.3576 97.5866L105.474 15.9298C108.068 13.638 112.019 13.8418 114.364 16.3881Z" fill="url(#paint14_linear_185_6763)"/>
<path d="M87.8365 37.784L37.5032 84.1279C35.2761 86.1783 35.1331 89.6459 37.1836 91.8728C39.234 94.0998 42.7015 94.2429 44.9284 92.1924L95.2617 45.8484C97.4886 43.7979 97.6318 40.3304 95.5813 38.1035C93.5307 35.8766 90.0633 35.7336 87.8365 37.784Z" fill="url(#paint15_linear_185_6763)"/>
<path opacity="0.39" d="M36.3375 90.9464L38.0509 92.8075L96.4519 39.0424L94.7385 37.1812L36.3375 90.9464Z" fill="white"/>
<path d="M22.4387 134.548C34.8312 134.548 44.8773 124.502 44.8773 112.109C44.8773 99.7168 34.8312 89.6707 22.4387 89.6707C10.0461 89.6707 0 99.7168 0 112.109C0 124.502 10.0461 134.548 22.4387 134.548Z" fill="url(#paint16_linear_185_6763)"/>
<path opacity="0.39" d="M39.0971 116.145C41.3169 106.943 35.6566 97.6833 26.4544 95.4635C17.2523 93.2436 7.99289 98.904 5.77305 108.106C3.5532 117.308 9.21349 126.568 18.4157 128.788C27.6179 131.007 36.8772 125.347 39.0971 116.145Z" fill="white"/>
<path d="M183.205 53.9817L179.704 59.7368C178.292 62.0582 175.738 63.1009 173.958 62.0831L108.243 24.9453L118.006 8.8956C118.798 7.59403 120.243 7.03987 121.206 7.66876L182.646 47.7999C184.369 48.913 184.617 51.6603 183.205 53.9817Z" fill="url(#paint17_linear_185_6763)"/>
<path d="M117.079 35.3525C126.807 35.3525 134.692 27.4666 134.692 17.7389C134.692 8.01112 126.807 0.125244 117.079 0.125244C107.351 0.125244 99.4652 8.01112 99.4652 17.7389C99.4652 27.4666 107.351 35.3525 117.079 35.3525Z" fill="url(#paint18_linear_185_6763)"/>
<path opacity="0.39" d="M122.495 30.0481C129.298 27.0602 132.392 19.1227 129.404 12.3191C126.416 5.51559 118.478 2.4224 111.675 5.41028C104.871 8.39816 101.778 16.3357 104.766 23.1392C107.754 29.9427 115.691 33.036 122.495 30.0481Z" fill="white"/>
<path d="M191.482 49.7275L184.788 45.6908C184.726 45.6533 184.645 45.6733 184.608 45.7355L172.805 65.3074C172.768 65.3696 172.788 65.4505 172.85 65.4878L179.544 69.5243C179.606 69.5619 179.687 69.5418 179.724 69.4797L191.527 49.9079C191.564 49.8458 191.544 49.765 191.482 49.7275Z" fill="url(#paint19_linear_185_6763)"/>
<path d="M199.85 57.4893L214.566 46.8652L234.957 71.6653L231.865 75.3155L213.43 55.5389L202.041 63.8748L199.85 57.4893Z" fill="url(#paint20_linear_185_6763)"/>
<path d="M190.48 73.1753L188.212 91.1836L219.752 97.1867L221.473 92.7237L195.279 86.0274L197.134 72.0364L190.48 73.1753Z" fill="url(#paint21_linear_185_6763)"/>
<path d="M185.729 72.7065C188.756 75.1865 192.981 76.0404 196.916 74.5836C202.819 72.3987 205.832 65.8427 203.647 59.9402C202.541 56.9531 200.316 54.706 197.622 53.498L185.729 72.7065Z" fill="url(#paint22_linear_185_6763)"/>
<path d="M179.253 68.7089L177.391 71.7959C177.056 72.3529 177.266 73.0955 177.862 73.4549L183.586 76.9065C184.182 77.266 184.938 77.1058 185.273 76.549L200.116 51.9352C200.452 51.3784 200.241 50.6355 199.645 50.2763L193.921 46.8247C193.325 46.4654 192.57 46.6254 192.234 47.1822L190.529 50.0108L179.253 68.7089Z" fill="url(#paint23_linear_185_6763)"/>
<path d="M197.84 191.192C196.784 191.864 195.776 192.072 194.816 191.816C193.856 191.56 193.04 190.904 192.368 189.848L177.488 165.08H164.048V186.968C164.048 189.656 162.704 191 160.016 191C157.328 191 155.984 189.656 155.984 186.968V129.944C155.984 127.256 157.328 125.912 160.016 125.912H182.48C188.336 125.912 192.816 127.48 195.92 130.616C199.056 133.72 200.624 138.2 200.624 144.056V146.936C200.624 152.024 199.44 156.088 197.072 159.128C194.704 162.136 191.28 164.008 186.8 164.744L199.376 185.72C200.592 187.96 200.08 189.784 197.84 191.192ZM164.048 157.016H182.48C186.128 157.016 188.72 156.248 190.256 154.712C191.792 153.176 192.56 150.584 192.56 146.936V144.056C192.56 140.44 191.792 137.864 190.256 136.328C188.72 134.76 186.128 133.976 182.48 133.976H164.048V157.016ZM220.016 191C217.328 191 215.984 189.656 215.984 186.968V129.944C215.984 127.256 217.328 125.912 220.016 125.912H255.344C256.592 125.912 257.568 126.28 258.272 127.016C259.008 127.72 259.376 128.696 259.376 129.944C259.376 132.632 258.032 133.976 255.344 133.976H224.048V154.136H243.344C246.032 154.136 247.376 155.48 247.376 158.168C247.376 160.856 246.032 162.2 243.344 162.2H224.048V186.968C224.048 189.656 222.704 191 220.016 191ZM320.134 193.112C320.806 193.816 321.126 194.584 321.094 195.416C321.094 196.28 320.678 197.08 319.846 197.816C318.278 199.288 316.678 199.256 315.046 197.72L298.534 180.248C297.83 179.512 297.478 178.728 297.478 177.896C297.478 177.032 297.862 176.248 298.63 175.544C300.23 174.04 301.862 174.072 303.526 175.64L320.134 193.112ZM287.59 191C280.262 191 274.838 189.256 271.318 185.768C267.83 182.248 266.086 176.824 266.086 169.496V147.32C266.086 139.928 267.846 134.504 271.366 131.048C274.886 127.56 280.294 125.848 287.59 125.912H299.11C306.47 125.912 311.894 127.656 315.382 131.144C318.87 134.632 320.614 140.056 320.614 147.416V169.496C320.614 176.824 318.87 182.248 315.382 185.768C311.894 189.256 306.47 191 299.11 191H287.59ZM287.59 182.936H299.11C302.534 182.936 305.222 182.536 307.174 181.736C309.126 180.904 310.502 179.512 311.302 177.56C312.134 175.608 312.55 172.92 312.55 169.496V147.416C312.55 144.024 312.134 141.352 311.302 139.4C310.502 137.448 309.126 136.056 307.174 135.224C305.222 134.392 302.534 133.976 299.11 133.976H287.59C284.198 133.944 281.526 134.328 279.574 135.128C277.622 135.928 276.23 137.304 275.398 139.256C274.566 141.208 274.15 143.896 274.15 147.32V169.496C274.15 172.92 274.55 175.608 275.35 177.56C276.182 179.512 277.574 180.904 279.526 181.736C281.478 182.536 284.166 182.936 287.59 182.936Z" fill="url(#paint24_linear_185_6763)"/>
<defs>
<linearGradient id="paint0_linear_185_6763" x1="296.72" y1="0.434504" x2="136.708" y2="357.514" gradientUnits="userSpaceOnUse">
<stop stop-color="#2B3582"/>
<stop offset="1" stop-color="#150E42"/>
</linearGradient>
<linearGradient id="paint1_linear_185_6763" x1="399.775" y1="-39.0359" x2="-109.53" y2="542.677" gradientUnits="userSpaceOnUse">
<stop stop-color="#0A0952"/>
<stop offset="1" stop-color="#D93C65"/>
</linearGradient>
<linearGradient id="paint2_linear_185_6763" x1="245.309" y1="174.492" x2="266.62" y2="-20.7191" gradientUnits="userSpaceOnUse">
<stop stop-color="#2B3582"/>
<stop offset="1" stop-color="#150E42"/>
</linearGradient>
<linearGradient id="paint3_linear_185_6763" x1="132.836" y1="305.118" x2="132.189" y2="315.135" gradientUnits="userSpaceOnUse">
<stop stop-color="#DB181B"/>
<stop offset="1" stop-color="#150E42"/>
</linearGradient>
<linearGradient id="paint4_linear_185_6763" x1="133.089" y1="277.452" x2="130.827" y2="326.565" gradientUnits="userSpaceOnUse">
<stop stop-color="#CB236D"/>
<stop offset="1" stop-color="#4C246D"/>
</linearGradient>
<linearGradient id="paint5_linear_185_6763" x1="132.796" y1="264.1" x2="130.858" y2="305.135" gradientUnits="userSpaceOnUse">
<stop stop-color="#CB236D"/>
<stop offset="1" stop-color="#4C246D"/>
</linearGradient>
<linearGradient id="paint6_linear_185_6763" x1="133.648" y1="235.249" x2="130.73" y2="275.12" gradientUnits="userSpaceOnUse">
<stop stop-color="white"/>
<stop offset="1" stop-color="#D8D8D8"/>
</linearGradient>
<linearGradient id="paint7_linear_185_6763" x1="93.9536" y1="274.959" x2="83.674" y2="319.101" gradientUnits="userSpaceOnUse">
<stop stop-color="white"/>
<stop offset="1" stop-color="#E6E6E6"/>
</linearGradient>
<linearGradient id="paint8_linear_185_6763" x1="105.179" y1="277.573" x2="94.8995" y2="321.715" gradientUnits="userSpaceOnUse">
<stop stop-color="white"/>
<stop offset="1" stop-color="#CCCCCC"/>
</linearGradient>
<linearGradient id="paint9_linear_185_6763" x1="68.8478" y1="202.039" x2="79.1928" y2="192.514" gradientUnits="userSpaceOnUse">
<stop stop-color="white"/>
<stop offset="1" stop-color="#CCCCCC"/>
</linearGradient>
<linearGradient id="paint10_linear_185_6763" x1="67.7778" y1="186.835" x2="92.8671" y2="163.734" gradientUnits="userSpaceOnUse">
<stop stop-color="white"/>
<stop offset="1" stop-color="#8C8C8C"/>
</linearGradient>
<linearGradient id="paint11_linear_185_6763" x1="49.5469" y1="106.082" x2="88.6124" y2="194.957" gradientUnits="userSpaceOnUse">
<stop stop-color="#53D8FF"/>
<stop offset="1" stop-color="#3840F7"/>
</linearGradient>
<linearGradient id="paint12_linear_185_6763" x1="111.662" y1="257.595" x2="152.774" y2="219.741" gradientUnits="userSpaceOnUse">
<stop stop-color="#53D8FF"/>
<stop offset="1" stop-color="#3840F7"/>
</linearGradient>
<linearGradient id="paint13_linear_185_6763" x1="69.7848" y1="39.9185" x2="69.7848" y2="124.448" gradientUnits="userSpaceOnUse">
<stop stop-color="white"/>
<stop offset="1" stop-color="#999999"/>
</linearGradient>
<linearGradient id="paint14_linear_185_6763" x1="19.0293" y1="110.057" x2="117.298" y2="19.5752" gradientUnits="userSpaceOnUse">
<stop stop-color="white"/>
<stop offset="1" stop-color="#BCBCBC"/>
</linearGradient>
<linearGradient id="paint15_linear_185_6763" x1="51.931" y1="42.6913" x2="77.8467" y2="82.6764" gradientUnits="userSpaceOnUse">
<stop stop-color="#53D8FF"/>
<stop offset="1" stop-color="#3840F7"/>
</linearGradient>
<linearGradient id="paint16_linear_185_6763" x1="5.93155" y1="127.308" x2="38.9458" y2="96.9103" gradientUnits="userSpaceOnUse">
<stop stop-color="#53D8FF"/>
<stop offset="1" stop-color="#3840F7"/>
</linearGradient>
<linearGradient id="paint17_linear_185_6763" x1="113.829" y1="15.7618" x2="181.439" y2="56.8861" gradientUnits="userSpaceOnUse">
<stop stop-color="white"/>
<stop offset="1" stop-color="#E0E0E0"/>
</linearGradient>
<linearGradient id="paint18_linear_185_6763" x1="152.43" y1="10.0933" x2="74.9152" y2="26.8578" gradientUnits="userSpaceOnUse">
<stop stop-color="#53D8FF"/>
<stop offset="1" stop-color="#3840F7"/>
</linearGradient>
<linearGradient id="paint19_linear_185_6763" x1="142.5" y1="64.4925" x2="213.567" y2="52.1573" gradientUnits="userSpaceOnUse">
<stop stop-color="#CB236D"/>
<stop offset="1" stop-color="#4C246D"/>
</linearGradient>
<linearGradient id="paint20_linear_185_6763" x1="255.763" y1="85.0271" x2="215.452" y2="59.8373" gradientUnits="userSpaceOnUse">
<stop/>
<stop offset="1" stop-color="white"/>
</linearGradient>
<linearGradient id="paint21_linear_185_6763" x1="239.58" y1="110.922" x2="199.27" y2="85.7326" gradientUnits="userSpaceOnUse">
<stop stop-color="#303030"/>
<stop offset="1" stop-color="white"/>
</linearGradient>
<linearGradient id="paint22_linear_185_6763" x1="191.593" y1="63.0652" x2="202.697" y2="69.8191" gradientUnits="userSpaceOnUse">
<stop stop-color="#2B3582"/>
<stop offset="1" stop-color="#150E42"/>
</linearGradient>
<linearGradient id="paint23_linear_185_6763" x1="202.007" y1="57.4823" x2="170.685" y2="67.8414" gradientUnits="userSpaceOnUse">
<stop stop-color="#CB236D"/>
<stop offset="1" stop-color="#4C246D"/>
</linearGradient>
<linearGradient id="paint24_linear_185_6763" x1="311.5" y1="191" x2="153.5" y2="131.5" gradientUnits="userSpaceOnUse">
<stop stop-color="#19175D"/>
<stop offset="1" stop-color="#97236D"/>
</linearGradient>
</defs>
</svg>
